<svg width="64" height="31" viewBox="0 0 64 31" fill="none" xmlns="http://www.w3.org/2000/svg">
<path fill-rule="evenodd" clip-rule="evenodd" d="M60.0799 13.5012C59.8332 13.3222 59.5429 13.1056 59.4128 12.977C59.4831 12.8563 59.6073 12.6688 59.7192 12.5109C60.3686 11.5696 61.5865 9.78961 61.5865 7.24849C61.5865 5.78924 61.0531 4.20571 59.7679 2.98923C58.4837 1.77223 56.4524 0.927035 53.4734 0.927613C50.6471 0.928062 47.4645 1.8563 44.7148 3.48196C43.4813 4.21335 42.4659 5.00139 41.7548 5.75815C41.0459 6.51485 40.6349 7.2386 40.6329 7.86165C40.6322 8.16363 40.7487 8.44134 40.9686 8.65906C41.1428 8.83041 41.3753 8.96182 41.6566 9.06387C41.9508 7.151 49.2093 2.99257 54.5248 3.60174C56.9017 3.87412 58.6708 5.64339 58.4249 8.0942C58.1897 10.4387 55.8031 11.7117 53.7485 12.3253C52.602 12.6677 51.4509 13.0001 50.3507 13.4773C49.8107 13.7116 49.2648 13.9778 48.7916 14.3309C48.4467 14.5884 47.9999 14.9225 48.0247 15.4052C48.8375 15.9584 50.128 16.2793 50.9673 16.34C51.6487 16.3892 51.839 16.4013 52.604 16.4243C54.1734 16.4716 55.8219 16.5252 57.2872 17.1535C59.3436 18.0354 60.5536 20.1612 60.1108 22.3862C59.5416 25.2465 56.6563 26.9775 53.978 27.4734C51.1134 28.004 47.5198 27.5888 45.628 25.1164C44.8549 24.1061 44.3676 22.7517 44.5785 21.4742C44.8128 20.0556 45.8097 18.6981 47.2462 18.335C48.1522 18.1059 49.1068 18.318 49.8264 18.8531C49.6481 18.5988 49.44 18.3669 49.2032 18.1616C48.3711 17.4392 47.2009 17.0333 45.8436 17.0333C44.1682 17.0329 42.8238 17.7284 41.9033 18.7596C40.9823 19.7914 40.4816 21.1558 40.4809 22.5003C40.4804 24.6163 41.4571 26.7417 43.3592 28.3348C45.2623 29.9279 48.0898 30.9892 51.7915 30.9892C54.7263 30.989 57.6864 30.02 59.9268 28.3373C61.7827 26.9394 64.001 24.3914 64 20.2117C64.001 16.3871 61.4329 14.4966 60.0799 13.5012ZM50.3478 21.7803C50.3342 21.3816 50.317 21.2373 50.317 21.2373C50.296 21.0662 50.2637 20.8955 50.2148 20.7301C49.7885 19.2898 48.0712 18.659 46.8289 19.5413C45.7993 20.2725 45.3947 21.6765 45.7677 22.859C46.7163 25.865 50.1911 26.489 52.9313 26.076C54.2804 25.8727 55.6076 25.386 56.6805 24.5265C57.7186 23.6948 58.5079 22.4112 58.2509 21.0667C58.0805 19.0508 56.5515 18.0469 54.0588 17.7575C54.1771 18.0005 54.5615 19.7666 53.3067 20.9072C52.5397 21.6042 51.721 21.7888 50.619 21.7903C50.5762 21.7903 50.3478 21.7803 50.3478 21.7803ZM5.00988 19.8333C5.16775 19.9554 5.34346 20.085 5.51103 20.1938C5.84403 20.4143 6.17672 20.6042 6.53079 20.7878C6.88377 20.973 7.24471 21.1438 7.6151 21.2868C7.6151 21.2868 8.13493 21.5006 8.74327 21.6564C9.35167 21.812 9.90208 21.879 9.90208 21.879C10.2918 21.932 10.6839 21.9437 11.0751 21.9385C11.0751 21.9385 11.7216 21.9192 12.2427 21.8226C13.5048 21.6142 14.789 20.67 15.118 20.4359L15.6449 20.0618C15.8367 19.9292 16.0339 19.8021 16.2407 19.6864C16.6524 19.4539 17.0969 19.2587 17.5725 19.1323C18.0484 19.0082 18.4932 18.9607 18.9967 19.0145C19.0596 19.0194 19.4405 19.0574 19.9138 19.2375C19.9138 19.2375 20.2456 19.3651 20.429 19.482C20.6451 19.6197 20.8475 19.7685 21.0308 19.9236C21.9272 20.6821 24.5508 23.8473 25.3072 24.5245C26.2006 25.3242 27.3226 26.1377 28.2318 26.3786C29.9885 26.8441 31.3737 26.4206 32.95 25.424C34.6908 24.3233 36.1016 22.6805 37.3015 21.0286C38.5674 19.286 39.7079 17.3861 40.4515 15.3589C40.8195 14.3555 41.1162 13.2548 40.9182 12.1814C40.8978 12.0709 40.8677 11.967 40.8303 11.8689C40.5798 12.4018 40.3109 12.9269 40.0241 13.4434C39.5628 14.2709 39.0563 15.0775 38.4905 15.8501C37.9239 16.6217 37.3005 17.3624 36.589 18.0378C35.8783 18.7113 35.0759 19.325 34.1409 19.7757C33.8857 19.8958 33.6217 20.0034 33.3489 20.0951C33.0749 20.1843 32.7921 20.256 32.5028 20.3078C31.9238 20.4076 31.3157 20.4177 30.7247 20.3191C30.1323 20.2245 29.5643 20.0232 29.044 19.759C28.5261 19.4903 28.0521 19.1619 27.6248 18.7975C27.6248 18.7975 27.3611 18.5657 27.3143 18.5196L27.0333 18.2523C26.8446 18.0737 26.6606 17.8956 26.4766 17.7157C26.1096 17.3562 25.4546 16.6213 25.4546 16.6213C25.4546 16.6213 24.3185 15.2932 23.384 14.2889C23.384 14.2889 22.509 13.3387 22.0312 12.9339C20.396 11.5486 18.4024 11.8532 16.6346 12.8147C14.9979 13.7051 13.5395 15.4127 11.5799 15.534C10.0537 15.6285 8.65933 15.0551 7.53687 14.0405C6.04564 12.6927 4.61573 11.2899 3.41826 9.64941C2.88751 8.92232 1.69556 7.8375 0.498087 8.77088C-0.699321 9.70419 0.422173 12.8321 2.16543 16.1053C2.16543 16.1053 3.72783 18.8424 5.00988 19.8333ZM48.7539 13.2822C49.606 12.7146 50.5579 12.2732 51.4928 11.8634C53.2804 11.0799 56.0108 10.6918 56.673 8.65258C57.3771 6.48428 55.4061 5.07551 53.4076 5.00775C47.9999 4.82452 42.6528 8.26601 42.3862 9.25076C42.5763 9.28474 42.7782 9.31255 42.9915 9.33535C43.9004 9.43066 45.0097 9.43374 46.203 9.43374H46.416C48.2556 9.43374 49.555 9.48319 50.3861 9.60439C50.8015 9.66501 51.1001 9.7444 51.2849 9.83804C51.4724 9.93502 51.5317 10.0272 51.5329 10.1318C51.5327 10.2057 51.4857 10.2723 51.3713 10.3841C50.9742 10.7825 49.9312 11.3733 48.9932 12.0227C48.5232 12.3482 48.0779 12.6899 47.7465 13.0388C47.4165 13.387 47.1933 13.7442 47.1897 14.1128V14.1302C47.192 14.3852 47.267 14.6124 47.3956 14.8136C47.3782 14.6456 47.5979 14.3618 47.6906 14.235C47.9723 13.8489 48.3591 13.5452 48.7539 13.2822ZM28.7823 17.4717C29.1169 17.7736 29.4739 18.0342 29.8473 18.2458C30.2222 18.452 30.6141 18.6072 31.0195 18.6895C31.4243 18.7749 31.8421 18.788 32.2635 18.7374C32.474 18.7099 32.6853 18.6682 32.8962 18.6119C33.1066 18.5526 33.3163 18.4806 33.5244 18.3968C34.289 18.0799 35.0203 17.5992 35.6986 17.0367C36.3788 16.4738 37.0105 15.8297 37.6026 15.145C38.1947 14.4593 38.7464 13.7301 39.2644 12.9746C39.6517 12.4078 40.0197 11.8256 40.3667 11.23C40.0897 11.0153 39.7301 10.9071 39.3219 10.9336C38.3536 10.9964 37.5207 11.637 36.8436 12.2786C36.1203 12.9639 35.4793 13.7247 34.7204 14.3735C33.963 15.0209 33.1724 15.635 32.3178 16.1496C31.1917 16.8276 29.9244 17.3118 28.6398 17.3387C28.646 17.3444 28.7823 17.4717 28.7823 17.4717ZM18.9589 20.1294C18.6051 20.11 18.2462 20.1584 17.8947 20.2677C17.5434 20.3797 17.2007 20.5478 16.8736 20.7538C16.7095 20.8561 16.5501 20.9699 16.3936 21.0891C16.3936 21.0891 15.1406 22.0183 14.7444 22.2543C13.9441 22.714 13.454 23.064 12.5414 23.2759C11.7634 23.4531 11.1515 23.481 11.1515 23.481C10.6843 23.5102 9.94871 23.5337 9.05142 23.402C7.84393 23.2247 7.02249 22.9081 7.02249 22.9081C6.64652 22.7827 6.28012 22.6339 5.9202 22.4718C6.60182 23.4631 7.35017 24.4579 8.27822 25.1788C9.0633 25.7889 10.0135 26.1988 11.0094 26.2781C12.6526 26.4089 13.7945 25.6228 15.0111 24.578C15.8809 23.831 16.6261 22.9302 17.3775 22.0672C17.901 21.466 18.4341 20.6748 19.091 20.1425C19.0469 20.1387 19.0034 20.1301 18.9589 20.1294ZM16.4567 6.98446C16.6356 7.18645 16.9197 7.2815 17.2486 7.34374C17.4123 7.3727 17.5865 7.38947 17.7644 7.39724C17.8505 7.40237 17.9495 7.40642 18.0278 7.40192L18.1509 7.39916L18.2752 7.38902C18.6067 7.36243 18.9445 7.27637 19.2736 7.16102C19.6009 7.03925 19.9242 6.88639 20.2124 6.69475C20.6772 6.38576 20.8321 6.16007 20.9164 6.03586C20.9959 5.90966 21.0525 5.78173 21.0748 5.65674C21.0978 5.53151 21.0847 5.40241 21.0186 5.25842C20.961 5.13633 20.8676 5.0091 20.6863 4.84828C20.1786 4.39755 19.3458 4.36229 18.8542 4.4183C17.7147 4.54803 16.755 5.21475 16.3989 5.92764C16.3093 6.11916 16.2627 6.35256 16.2822 6.54857C16.3005 6.73354 16.3669 6.8819 16.4567 6.98446ZM19.4912 10.0114C21.2414 9.81203 22.5178 8.39831 22.3419 6.85389C22.295 6.44247 22.1487 6.06406 21.9278 5.73285C21.9503 5.97485 21.9145 6.21248 21.8472 6.4268C21.7685 6.68569 21.6392 6.91716 21.49 7.12884C21.3402 7.3377 21.1711 7.51804 20.9881 7.68085C20.6231 8.00647 20.2059 8.25342 19.7578 8.43299C19.3077 8.60601 18.8244 8.71596 18.3229 8.71378C18.3229 8.71378 18.1411 8.71796 17.9712 8.69779C17.8053 8.67814 17.6165 8.64082 17.5888 8.63491C17.3552 8.58347 17.12 8.51501 16.8894 8.41006C16.7744 8.35727 16.4989 8.23036 16.2307 7.97956C16.1584 7.91206 16.0914 7.83461 16.0304 7.75156C16.3003 9.20195 17.808 10.203 19.4912 10.0114Z" fill="#FF6900"/>
</svg>
